IKResults
version=1
nRows=5
nColumns=40
inDegrees=yes

Units are S.I. units (second, meters, Newtons, ...)
Angles are in degrees.

endheader
time	pelvis_tilt	pelvis_list	pelvis_rotation	pelvis_tx	pelvis_ty	pelvis_tz	hip_flexion_r	hip_adduction_r	hip_rotation_r	knee_angle_r	knee_angle_r_beta	ankle_angle_r	subtalar_angle_r	mtp_angle_r	hip_flexion_l	hip_adduction_l	hip_rotation_l	knee_angle_l	knee_angle_l_beta	ankle_angle_l	subtalar_angle_l	mtp_angle_l	lumbar_extension	lumbar_bending	lumbar_rotation	arm_flex_r	arm_add_r	arm_rot_r	elbow_flex_r	pro_sup_r	wrist_flex_r	wrist_dev_r	arm_flex_l	arm_add_l	arm_rot_l	elbow_flex_l	pro_sup_l	wrist_flex_l	wrist_dev_l
      0.00000000	     16.36564554	     -3.71109185	      4.03803785	     -0.80346164	      0.95053194	      0.98461240	    -13.31026416	      6.18442916	    -10.18970262	    -16.02508730	     -0.27969054	      7.60345791	     -4.82701332	     -0.55355774	     -5.76019226	      3.11313649	     -0.47407178	    -55.68689803	     -0.97191972	      5.08078499	     17.93468650	      1.45501095	    -23.06096575	      3.91359468	     -2.02189481	     -3.42740928	    -12.25422638	     -0.98894043	     29.71379343	     89.95437384	      0.00000000	      0.00000000	      3.06690384	      8.19938676	      8.85621815	     29.19990991	     89.95437384	      0.00000000	      0.00000000
      0.01000000	     16.44485845	     -3.07835194	      3.67922621	     -0.78972644	      0.95107888	      0.98565008	    -14.61067873	      5.38322800	    -10.98025115	    -15.70195261	     -0.27405077	      8.58401679	     -2.65016291	      0.66620624	     -4.56931023	      2.38215038	      0.08915442	    -54.64591623	     -0.95375116	      6.89166600	     17.99632076	      9.37840397	    -23.11511939	      3.10638332	     -1.67374282	     -3.12487074	    -12.47231557	     -0.97281838	     30.98412735	     89.95437384	      0.00000000	      0.00000000	      2.53592814	      8.27202761	      9.32833143	     27.36968297	     89.95437384	      0.00000000	      0.00000000
      0.02000000	     16.22885408	     -2.80678430	      3.40186909	     -0.77629298	      0.95070817	      0.98704746	    -15.59140514	      5.14106044	    -11.09385380	    -15.16133836	     -0.26461527	      9.05768572	     -2.48878672	      0.60079482	     -2.87479861	      2.23564810	      0.82310527	    -53.67549673	     -0.93681415	      8.02930991	     18.15548036	      9.31960944	    -22.86722180	      2.63847588	     -1.30020147	     -2.71672134	    -12.66229267	     -0.92364792	     32.11491110	     89.95437384	      0.00000000	      0.00000000	      1.82953942	      8.46471591	      9.46326403	     25.90832397	     89.95437384	      0.00000000	      0.00000000
      0.03000000	     16.43835616	     -2.44533120	      2.83125760	     -0.76255495	      0.95077302	      0.98844911	    -17.04021354	      4.71302594	    -10.65681339	    -14.67116440	     -0.25606012	      9.46175130	     -2.02122786	      0.47661328	     -1.99710503	      2.00494146	      1.94402383	    -52.05135305	     -0.90846749	      8.81865772	     18.20661262	      9.58374176	    -23.08970081	      2.04653300	     -0.59730216	     -2.55932110	    -12.98772167	     -1.00388353	     33.77600247	     89.95437384	      0.00000000	      0.00000000	      1.40203880	      8.47700021	     10.12738114	     24.04472753	     89.95437384	      0.00000000	      0.00000000
      0.04000000	     16.57435604	     -2.08255865	      2.24062057	     -0.74887184	      0.95040594	      0.98977514	    -18.30728601	      4.24711756	    -10.25507524	    -14.34083153	     -0.25029473	      9.93797593	     -1.85148072	      0.28725514	     -1.05668392	      1.78951615	      3.20060167	    -50.31181376	     -0.87810680	      9.42752089	     18.20153443	      9.87031781	    -23.21425525	      1.43928990	     -0.01950180	     -2.20779328	    -13.27793320	     -1.00512090	     35.12989725	     89.95437384	      0.00000000	      0.00000000	      0.78148726	      8.56013778	     10.72086822	     22.48861844	     89.95437384	      0.00000000	      0.00000000
